# xmcd
#
# Track frame offsets:
#	150
#	15594
#	29358
#	47274
#	63874
#	81698
#	88953
#	101244
#	113413
#	126023
#	138554
#	158318
#	173041
#	194275
#
# Disc length: 2759 seconds
#
# Revision: 1
# Processed by: cddbd v1.5.2PL0 Copyright (c) Steve Scherf et al.
# Submitted via: audiograbber 1.82.01
#
DISCID=ae0ac50e
DTITLE=Danek Wabi - A zivot bezi dal
DYEAR=2009
DGENRE=Country
TTITLE0=Zivot bezi dal
TTITLE1=Co z lasky mas
TTITLE2=Ja vim, ze te ztracim
TTITLE3=Quantanamo
TTITLE4=Lady Yesterday
TTITLE5=LadyJam
TTITLE6=Loupezivej rytir
TTITLE7=Michelle
TTITLE8=Samota tizi
TTITLE9=Prvni vlak na jih
TTITLE10=Reknete ji
TTITLE11=Rumovy raj
TTITLE12=Bobby McGee
TTITLE13=Ostrov pokladu
EXTD=
EXTT0=
EXTT1=
EXTT2=
EXTT3=
EXTT4=
EXTT5=
EXTT6=
EXTT7=
EXTT8=
EXTT9=
EXTT10=
EXTT11=
EXTT12=
EXTT13=
PLAYORDER=
